<?xml version="1.0" encoding="UTF-8"?>
<svg xmlns="http://www.w3.org/2000/svg" xmlns:xlink="http://www.w3.org/1999/xlink" width="128px" height="128px" viewBox="0 0 128 128" version="1.1">
<g id="surface1">
<path style=" stroke:none;fill-rule:nonzero;fill:rgb(37.254902%,38.823529%,47.45098%);fill-opacity:1;" d="M 122.675781 62.789062 C 121.539062 62.789062 120.386719 62.425781 119.425781 61.675781 L 67.375 21.460938 C 65.460938 19.988281 62.789062 19.988281 60.875 21.460938 L 8.835938 61.675781 C 6.511719 63.476562 3.164062 63.039062 1.375 60.710938 C -0.425781 58.386719 0 55.039062 2.335938 53.25 L 54.375 13.039062 C 60.125 8.601562 68.148438 8.601562 73.886719 13.039062 L 125.9375 53.25 C 128.261719 55.050781 128.6875 58.386719 126.898438 60.710938 C 125.835938 62.074219 124.261719 62.789062 122.675781 62.789062 Z M 122.675781 62.789062 "/>
<path style=" stroke:none;fill-rule:nonzero;fill:rgb(21.176471%,53.333333%,100%);fill-opacity:1;" d="M 101.300781 122.664062 L 26.960938 122.664062 C 18.113281 122.664062 10.914062 115.460938 10.914062 106.613281 L 10.914062 66.773438 C 10.914062 63.835938 13.300781 61.449219 16.238281 61.449219 C 19.175781 61.449219 21.5625 63.835938 21.5625 66.773438 L 21.5625 106.613281 C 21.5625 109.585938 23.988281 112.011719 26.960938 112.011719 L 101.3125 112.011719 C 104.289062 112.011719 106.710938 109.585938 106.710938 106.613281 L 106.710938 66.773438 C 106.710938 63.835938 109.101562 61.449219 112.039062 61.449219 C 114.976562 61.449219 117.363281 63.835938 117.363281 66.773438 L 117.363281 106.613281 C 117.351562 115.460938 110.148438 122.664062 101.300781 122.664062 Z M 101.300781 122.664062 "/>
</g>
</svg>
